<svg width="20" height="20" viewBox="0 0 20 20" fill="#0033CC" xmlns="http://www.w3.org/2000/svg">
<path d="M19.7262 16.3587L11.4384 8.09825C12.2872 5.96945 11.8491 3.45855 10.124 1.73004C8.02465 -0.362378 4.75698 -0.553425 2.42945 1.1387L5.93444 4.64122L4.63832 5.92396L1.14247 2.43964C-0.555256 4.75039 -0.363577 8.01638 1.73576 10.0997C3.43349 11.7918 5.90705 12.2376 8.02465 11.4461L16.3398 19.7339C16.6958 20.0887 17.2709 20.0887 17.6268 19.7339L19.7262 17.6415C20.0913 17.2958 20.0913 16.7226 19.7262 16.3587ZM16.9879 17.8143L8.35324 9.20814C7.79646 9.61753 7.17578 9.86316 6.52773 9.95413C5.28638 10.1361 3.98114 9.76309 3.03187 8.81695C2.16476 7.96179 1.76314 6.81551 1.82704 5.68743L4.64745 8.49854L8.51754 4.64122L5.69712 1.83011C6.82894 1.76643 7.96988 2.16671 8.837 3.02187C9.82278 4.0044 10.197 5.35992 9.96882 6.62447C9.85929 7.27039 9.58546 7.87082 9.16559 8.40757L17.7911 17.0047L16.9879 17.8143Z" fill="#0033CC"/>
</svg>
