<svg width="27" height="40" viewBox="0 0 27 40" fill="none" xmlns="http://www.w3.org/2000/svg">
<g filter="url(#filter0_b_925_2177)">
<path d="M13.5 29.1C16.965 26.3047 19.5812 23.6142 21.3487 21.0285C23.1162 18.4428 24 16.0333 24 13.8C24 11.8333 23.6417 10.1667 22.925 8.8C22.2083 7.43333 21.3249 6.31867 20.2746 5.456C19.2242 4.5933 18.0864 3.9683 16.861 3.581C15.6356 3.19367 14.5153 3 13.5 3C12.4847 3 11.3644 3.19367 10.139 3.581C8.91363 3.9683 7.77578 4.5933 6.72545 5.456C5.67515 6.31867 4.79167 7.43333 4.075 8.8C3.35833 10.1667 3 11.8333 3 13.8C3 16.0333 3.88375 18.4428 5.65125 21.0285C7.41875 23.6142 10.035 26.3047 13.5 29.1ZM13.5 32.9C8.93333 29.4667 5.54167 26.18 3.325 23.0401C1.10833 19.9001 0 16.8242 0 13.8124C0 11.5375 0.408333 9.54167 1.225 7.825C2.04167 6.10833 3.1 4.66667 4.4 3.5C5.7 2.33333 7.14967 1.45833 8.749 0.875C10.3483 0.291667 11.9317 0 13.499 0C15.0663 0 16.65 0.291667 18.25 0.875C19.85 1.45833 21.3 2.33333 22.6 3.5C23.9 4.66667 24.9583 6.10888 25.775 7.82665C26.5917 9.54442 27 11.5431 27 13.8228C27 16.8409 25.8917 19.9167 23.675 23.05C21.4583 26.1833 18.0667 29.4667 13.5 32.9ZM13.5044 17C14.4682 17 15.2917 16.6569 15.975 15.9706C16.6583 15.2843 17 14.4593 17 13.4956C17 12.5319 16.6569 11.7083 15.9706 11.025C15.2843 10.3417 14.4593 10 13.4956 10C12.5319 10 11.7083 10.3431 11.025 11.0294C10.3417 11.7157 10 12.5407 10 13.5044C10 14.4682 10.3431 15.2917 11.0294 15.975C11.7157 16.6583 12.5407 17 13.5044 17ZM0 40V37H27V40H0Z" fill="#0033CC"/>
</g>
<defs>
<filter id="filter0_b_925_2177" x="-4" y="-4" width="35" height="48" filterUnits="userSpaceOnUse" color-interpolation-filters="sRGB">
<feFlood flood-opacity="0" result="BackgroundImageFix"/>
<feGaussianBlur in="BackgroundImageFix" stdDeviation="2"/>
<feComposite in2="SourceAlpha" operator="in" result="effect1_backgroundBlur_925_2177"/>
<feBlend mode="normal" in="SourceGraphic" in2="effect1_backgroundBlur_925_2177" result="shape"/>
</filter>
</defs>
</svg>
