<svg width="35" height="5" viewBox="0 0 35 5" fill="none" xmlns="http://www.w3.org/2000/svg">
<path d="M2.66805 4.18C2.10805 4.18 1.62805 3.99 1.22805 3.61C0.828047 3.21 0.628047 2.71 0.628047 2.11C0.628047 1.51 0.828047 1.02 1.22805 0.64C1.62805 0.26 2.10805 0.0699996 2.66805 0.0699996C3.20805 0.0699996 3.66805 0.26 4.04805 0.64C4.44805 1.02 4.64805 1.51 4.64805 2.11C4.64805 2.71 4.44805 3.21 4.04805 3.61C3.66805 3.99 3.20805 4.18 2.66805 4.18ZM17.5216 4.18C16.9616 4.18 16.4816 3.99 16.0816 3.61C15.6816 3.21 15.4816 2.71 15.4816 2.11C15.4816 1.51 15.6816 1.02 16.0816 0.64C16.4816 0.26 16.9616 0.0699996 17.5216 0.0699996C18.0616 0.0699996 18.5216 0.26 18.9016 0.64C19.3016 1.02 19.5016 1.51 19.5016 2.11C19.5016 2.71 19.3016 3.21 18.9016 3.61C18.5216 3.99 18.0616 4.18 17.5216 4.18ZM32.3751 4.18C31.8151 4.18 31.3351 3.99 30.9351 3.61C30.5351 3.21 30.3351 2.71 30.3351 2.11C30.3351 1.51 30.5351 1.02 30.9351 0.64C31.3351 0.26 31.8151 0.0699996 32.3751 0.0699996C32.9151 0.0699996 33.3751 0.26 33.7551 0.64C34.1551 1.02 34.3551 1.51 34.3551 2.11C34.3551 2.71 34.1551 3.21 33.7551 3.61C33.3751 3.99 32.9151 4.18 32.3751 4.18Z" fill="white"/>
</svg>
