<svg width="29" height="27" viewBox="0 0 29 27" fill="none" xmlns="http://www.w3.org/2000/svg">
<path d="M0.08 17.648V14.12H19.52V17.648H0.08ZM0.08 12.68V9.152H19.52V12.68H0.08ZM17.288 26.504C15.296 26.504 13.448 26.192 11.744 25.568C10.064 24.92 8.6 24.008 7.352 22.832C6.128 21.656 5.168 20.276 4.472 18.692C3.776 17.084 3.428 15.32 3.428 13.4C3.428 11.48 3.776 9.728 4.472 8.144C5.168 6.536 6.128 5.144 7.352 3.968C8.6 2.792 10.064 1.892 11.744 1.268C13.448 0.619998 15.296 0.295998 17.288 0.295998C19.616 0.295998 21.692 0.703999 23.516 1.52C25.364 2.336 26.9 3.512 28.124 5.048L23.588 9.152C22.796 8.192 21.908 7.46 20.924 6.956C19.94 6.452 18.848 6.2 17.648 6.2C16.616 6.2 15.668 6.368 14.804 6.704C13.964 7.04 13.232 7.532 12.608 8.18C11.984 8.804 11.492 9.56 11.132 10.448C10.796 11.336 10.628 12.32 10.628 13.4C10.628 14.48 10.796 15.464 11.132 16.352C11.492 17.24 11.984 18.008 12.608 18.656C13.232 19.28 13.964 19.76 14.804 20.096C15.668 20.432 16.616 20.6 17.648 20.6C18.848 20.6 19.94 20.348 20.924 19.844C21.908 19.34 22.796 18.608 23.588 17.648L28.124 21.752C26.9 23.264 25.364 24.44 23.516 25.28C21.692 26.096 19.616 26.504 17.288 26.504Z" fill="white"/>
</svg>
