<svg width="28" height="26" viewBox="0 0 28 26" fill="#0033CC" xmlns="http://www.w3.org/2000/svg">
<path d="M23.2022 16.7402L23.6217 19.8811C23.7293 20.7061 22.7718 21.2826 22.0079 20.8552L17.5 18.3803C17.0051 18.3803 16.521 18.3504 16.0476 18.2908C16.8631 17.4174 17.3134 16.3033 17.3171 15.1499C17.3171 12.3271 14.6704 10.041 11.3998 10.041C10.1518 10.041 9.00057 10.369 8.04304 10.9455C8.01076 10.697 8 10.4486 8 10.1901C8 5.66767 12.2497 2 17.5 2C22.7503 2 27 5.66767 27 10.1901C27 12.8738 25.5045 15.2493 23.2022 16.7402Z" stroke="white" stroke-width="1.5" stroke-linecap="round" stroke-linejoin="round"/>
<path d="M17 15.1785C17 16.3774 16.52 17.4856 15.7127 18.3621C14.6327 19.5711 12.92 20.3469 11 20.3469L8.15273 21.9085C7.67273 22.1805 7.06182 21.8077 7.12727 21.2939L7.4 19.3092C5.93818 18.3722 5 16.8711 5 15.1785C5 13.4053 6.02545 11.8437 7.59636 10.9168C8.56727 10.3325 9.73455 10 11 10C14.3164 10 17 12.3172 17 15.1785Z" stroke="white" stroke-width="1.5" stroke-linecap="round" stroke-linejoin="round"/>
</svg>
