<svg width="16" height="17" viewBox="0 0 16 17" fill="none" xmlns="http://www.w3.org/2000/svg">
<path d="M1.33333 17C0.977778 17 0.666667 16.8725 0.4 16.6175C0.133333 16.3625 0 16.065 0 15.725V2.55C0 2.21 0.133333 1.9125 0.4 1.6575C0.666667 1.4025 0.977778 1.275 1.33333 1.275H2.77778V0H4.22222V1.275H11.7778V0H13.2222V1.275H14.6667C15.0222 1.275 15.3333 1.4025 15.6 1.6575C15.8667 1.9125 16 2.21 16 2.55V15.725C16 16.065 15.8667 16.3625 15.6 16.6175C15.3333 16.8725 15.0222 17 14.6667 17H1.33333ZM1.33333 15.725H14.6667V6.5875H1.33333V15.725ZM1.33333 5.3125H14.6667V2.55H1.33333V5.3125ZM8 10.2C7.74815 10.2 7.53704 10.1185 7.36667 9.95563C7.1963 9.79271 7.11111 9.59083 7.11111 9.35C7.11111 9.10917 7.1963 8.90729 7.36667 8.74438C7.53704 8.58146 7.74815 8.5 8 8.5C8.25185 8.5 8.46296 8.58146 8.63333 8.74438C8.8037 8.90729 8.88889 9.10917 8.88889 9.35C8.88889 9.59083 8.8037 9.79271 8.63333 9.95563C8.46296 10.1185 8.25185 10.2 8 10.2ZM4.44444 10.2C4.19259 10.2 3.98148 10.1185 3.81111 9.95563C3.64074 9.79271 3.55556 9.59083 3.55556 9.35C3.55556 9.10917 3.64074 8.90729 3.81111 8.74438C3.98148 8.58146 4.19259 8.5 4.44444 8.5C4.6963 8.5 4.90741 8.58146 5.07778 8.74438C5.24815 8.90729 5.33333 9.10917 5.33333 9.35C5.33333 9.59083 5.24815 9.79271 5.07778 9.95563C4.90741 10.1185 4.6963 10.2 4.44444 10.2ZM11.5556 10.2C11.3037 10.2 11.0926 10.1185 10.9222 9.95563C10.7519 9.79271 10.6667 9.59083 10.6667 9.35C10.6667 9.10917 10.7519 8.90729 10.9222 8.74438C11.0926 8.58146 11.3037 8.5 11.5556 8.5C11.8074 8.5 12.0185 8.58146 12.1889 8.74438C12.3593 8.90729 12.4444 9.10917 12.4444 9.35C12.4444 9.59083 12.3593 9.79271 12.1889 9.95563C12.0185 10.1185 11.8074 10.2 11.5556 10.2ZM8 13.6C7.74815 13.6 7.53704 13.5185 7.36667 13.3556C7.1963 13.1927 7.11111 12.9908 7.11111 12.75C7.11111 12.5092 7.1963 12.3073 7.36667 12.1444C7.53704 11.9815 7.74815 11.9 8 11.9C8.25185 11.9 8.46296 11.9815 8.63333 12.1444C8.8037 12.3073 8.88889 12.5092 8.88889 12.75C8.88889 12.9908 8.8037 13.1927 8.63333 13.3556C8.46296 13.5185 8.25185 13.6 8 13.6ZM4.44444 13.6C4.19259 13.6 3.98148 13.5185 3.81111 13.3556C3.64074 13.1927 3.55556 12.9908 3.55556 12.75C3.55556 12.5092 3.64074 12.3073 3.81111 12.1444C3.98148 11.9815 4.19259 11.9 4.44444 11.9C4.6963 11.9 4.90741 11.9815 5.07778 12.1444C5.24815 12.3073 5.33333 12.5092 5.33333 12.75C5.33333 12.9908 5.24815 13.1927 5.07778 13.3556C4.90741 13.5185 4.6963 13.6 4.44444 13.6ZM11.5556 13.6C11.3037 13.6 11.0926 13.5185 10.9222 13.3556C10.7519 13.1927 10.6667 12.9908 10.6667 12.75C10.6667 12.5092 10.7519 12.3073 10.9222 12.1444C11.0926 11.9815 11.3037 11.9 11.5556 11.9C11.8074 11.9 12.0185 11.9815 12.1889 12.1444C12.3593 12.3073 12.4444 12.5092 12.4444 12.75C12.4444 12.9908 12.3593 13.1927 12.1889 13.3556C12.0185 13.5185 11.8074 13.6 11.5556 13.6Z"
 fill="currentColor"/>
</svg>
