<svg width="13" height="13" viewBox="0 0 13 13" fill="none" xmlns="http://www.w3.org/2000/svg">
<path d="M8.66667 13C7.28241 13 6.00347 12.5938 4.82986 11.7813C3.65625 10.9688 2.8588 9.87037 2.4375 8.48611H0V7.40278H2.22083C2.17269 7.06574 2.15162 6.76482 2.15764 6.5C2.16366 6.23519 2.18472 5.93426 2.22083 5.59722H0V4.51389H2.4375C2.8588 3.12963 3.65625 2.03125 4.82986 1.21875C6.00347 0.40625 7.28241 0 8.66667 0C9.49722 0 10.2766 0.141435 11.0049 0.424306C11.7331 0.707176 12.3981 1.11944 13 1.66111L12.2236 2.41944C11.7301 1.98611 11.1764 1.65509 10.5625 1.42639C9.94861 1.19769 9.31667 1.08333 8.66667 1.08333C7.53519 1.08333 6.50301 1.39931 5.57014 2.03125C4.63727 2.66319 3.97824 3.49074 3.59306 4.51389H8.66667V5.59722H3.32222C3.26204 5.92222 3.23194 6.22315 3.23194 6.5C3.23194 6.77685 3.26204 7.07778 3.32222 7.40278H8.66667V8.48611H3.59306C3.97824 9.50926 4.63727 10.3368 5.57014 10.9688C6.50301 11.6007 7.53519 11.9167 8.66667 11.9167C9.30463 11.9167 9.93056 11.8083 10.5444 11.5917C11.1583 11.375 11.7241 11.038 12.2417 10.5806L13 11.3389C12.4704 11.8444 11.8264 12.2477 11.0681 12.5486C10.3097 12.8495 9.50926 13 8.66667 13Z" fill="currentColor"/>
</svg>
