<svg width="20" height="20" viewBox="0 0 20 20" fill="none" xmlns="http://www.w3.org/2000/svg">
<path d="M4.1665 16.6667V10H1.6665L9.99984 2.5L14.1665 6.1875V3.75H15.8332V7.72917L18.3332 10H15.8332V16.6667H11.0415V11.6667H8.95817V16.6667H4.1665ZM5.4165 15.4167H7.70817V10.4167H12.2915V15.4167H14.5832V8.3125L9.99984 4.14583L5.4165 8.3125V15.4167ZM8.229 8.125H11.7707C11.7707 7.66667 11.5936 7.28819 11.2394 6.98958C10.8853 6.69097 10.4721 6.54167 9.99984 6.54167C9.52762 6.54167 9.11442 6.69097 8.76025 6.98958C8.40609 7.28819 8.229 7.66667 8.229 8.125Z" fill="black"/>
</svg>
