<svg width="17" height="17" viewBox="0 0 17 17" fill="none" xmlns="http://www.w3.org/2000/svg">
<path d="M7.79183 10.625H9.2085V8.85413H10.9793V7.43747H9.2085V5.66663H7.79183V7.43747H6.021V8.85413H7.79183V10.625ZM8.50016 15.5656C6.84739 15.1524 5.48975 14.1932 4.42725 12.688C3.36475 11.1828 2.8335 9.53295 2.8335 7.73851V3.52393L8.50016 1.39893L14.1668 3.52393V7.73851C14.1668 9.53295 13.6356 11.1828 12.5731 12.688C11.5106 14.1932 10.1529 15.1524 8.50016 15.5656ZM8.50016 14.4677C9.8578 14.0191 10.9646 13.172 11.8205 11.9265C12.6764 10.681 13.1043 9.28504 13.1043 7.73851V4.26768L8.50016 2.53226L3.896 4.26768V7.73851C3.896 9.28504 4.32395 10.681 5.17985 11.9265C6.03575 13.172 7.14252 14.0191 8.50016 14.4677Z" fill="black"/>
</svg>
