<svg width="28" height="20" viewBox="0 0 28 20" fill="none" xmlns="http://www.w3.org/2000/svg">
<path d="M15.9091 11.875C14.8485 11.875 13.947 11.5104 13.2045 10.7812C12.4621 10.0521 12.0909 9.16667 12.0909 8.125C12.0909 7.08333 12.4621 6.19792 13.2045 5.46875C13.947 4.73958 14.8485 4.375 15.9091 4.375C16.9697 4.375 17.8712 4.73958 18.6136 5.46875C19.3561 6.19792 19.7273 7.08333 19.7273 8.125C19.7273 9.16667 19.3561 10.0521 18.6136 10.7812C17.8712 11.5104 16.9697 11.875 15.9091 11.875ZM5.72727 16.25C5.20227 16.25 4.75284 16.0664 4.37898 15.6992C4.00511 15.332 3.81818 14.8906 3.81818 14.375V1.875C3.81818 1.35938 4.00511 0.917969 4.37898 0.550781C4.75284 0.183594 5.20227 0 5.72727 0H26.0909C26.6159 0 27.0653 0.183594 27.4392 0.550781C27.8131 0.917969 28 1.35938 28 1.875V14.375C28 14.8906 27.8131 15.332 27.4392 15.6992C27.0653 16.0664 26.6159 16.25 26.0909 16.25H5.72727ZM8.90909 14.375H22.9091C22.9091 13.5 23.2167 12.7604 23.8318 12.1562C24.447 11.5521 25.2 11.25 26.0909 11.25V5C25.2 5 24.447 4.69792 23.8318 4.09375C23.2167 3.48958 22.9091 2.75 22.9091 1.875H8.90909C8.90909 2.75 8.60151 3.48958 7.98636 4.09375C7.37121 4.69792 6.61818 5 5.72727 5V11.25C6.61818 11.25 7.37121 11.5521 7.98636 12.1562C8.60151 12.7604 8.90909 13.5 8.90909 14.375ZM24.1818 20H1.90909C1.38409 20 0.934659 19.8164 0.560795 19.4492C0.186932 19.082 0 18.6406 0 18.125V3.75H1.90909V18.125H24.1818V20Z" fill="#0033CC"/>
</svg>
