<svg version="1.2" xmlns="http://www.w3.org/2000/svg" viewBox="0 0 100 100" width="100" height="100"><style>.a{fill:#bc2626}</style><path fill-rule="evenodd" class="a" d="m30 80q-4.1 0-7.1-2.9-2.9-3-2.9-7.1v-60q0-4.1 2.9-7.1 3-2.9 7.1-2.9h60q4.1 0 7.1 2.9 2.9 3 2.9 7.1v60q0 4.1-2.9 7.1-3 2.9-7.1 2.9zm0-10h60v-60h-60zm-20 30q-4.1 0-7.1-2.9-2.9-3-2.9-7.1v-70h10v70h70v10zm45-72.5h10q2.1 0 3.6 1.4 1.4 1.5 1.4 3.6v15q0 2.1-1.4 3.6-1.5 1.4-3.6 1.4h-10c0 0 0-25 0-25zm20 0h10v5h-5v5h5v5h-5v10h-5c0 0 0-25 0-25zm-40 0h10q2.1 0 3.6 1.4 1.4 1.5 1.4 3.6v5q0 2.1-1.4 3.6-1.5 1.4-3.6 1.4h-5v10h-5c0 0 0-25 0-25zm5 10h5v-5h-5zm20 10h5v-15h-5zm-30-37.5v60z"/></svg>