<svg width="16" height="16" viewBox="0 0 16 16" fill="none" xmlns="http://www.w3.org/2000/svg">
<path d="M14.0002 7.35V13C14.0002 13.2667 13.9002 13.5 13.7001 13.7C13.5001 13.9 13.2668 14 13.0002 14H2.98348C2.71682 14 2.48348 13.9 2.28348 13.7C2.08348 13.5 1.98348 13.2667 1.98348 13V7.35C1.67237 7.08333 1.46682 6.75556 1.36682 6.36667C1.26682 5.97778 1.27793 5.58889 1.40015 5.2L2.11682 2.95C2.20571 2.65 2.36126 2.41667 2.58348 2.25C2.80571 2.08333 3.06126 2 3.35015 2H12.5668C12.8779 2 13.1502 2.08611 13.3835 2.25833C13.6168 2.43056 13.7779 2.66111 13.8668 2.95L14.6002 5.2C14.7224 5.58889 14.7307 5.97778 14.6252 6.36667C14.5196 6.75556 14.3113 7.08333 14.0002 7.35ZM9.50015 6.83333C9.82237 6.83333 10.0946 6.72778 10.3168 6.51667C10.539 6.30556 10.6279 6.05 10.5835 5.75L10.1668 3H8.50015V5.75C8.50015 6.03889 8.59459 6.29167 8.78348 6.50833C8.97237 6.725 9.21126 6.83333 9.50015 6.83333ZM6.38348 6.83333C6.69459 6.83333 6.95848 6.72778 7.17515 6.51667C7.39182 6.30556 7.50015 6.05 7.50015 5.75V3H5.83348L5.41682 5.75C5.37237 6.03889 5.45015 6.29167 5.65015 6.50833C5.85015 6.725 6.09459 6.83333 6.38348 6.83333ZM3.35015 6.83333C3.61682 6.83333 3.84737 6.74167 4.04182 6.55833C4.23626 6.375 4.35015 6.15 4.38348 5.88333L4.81682 3H3.15015L2.38348 5.43333C2.27237 5.77778 2.31682 6.09722 2.51682 6.39167C2.71682 6.68611 2.99459 6.83333 3.35015 6.83333ZM12.6335 6.83333C12.989 6.83333 13.2696 6.68889 13.4752 6.4C13.6807 6.11111 13.7279 5.78889 13.6168 5.43333L12.8502 3H11.1835L11.6168 5.88333C11.6502 6.15 11.764 6.375 11.9585 6.55833C12.1529 6.74167 12.3779 6.83333 12.6335 6.83333ZM2.98348 13H13.0002V7.81667C13.0113 7.82778 12.9752 7.83333 12.8918 7.83333H12.6335C12.3557 7.83333 12.0918 7.775 11.8418 7.65833C11.5918 7.54167 11.3446 7.36111 11.1002 7.11667C10.9224 7.33889 10.7002 7.51389 10.4335 7.64167C10.1668 7.76944 9.87237 7.83333 9.55015 7.83333C9.21682 7.83333 8.93071 7.78611 8.69182 7.69167C8.45293 7.59722 8.22237 7.43889 8.00015 7.21667C7.83348 7.41667 7.62237 7.56944 7.36682 7.675C7.11126 7.78056 6.82237 7.83333 6.50015 7.83333C6.15571 7.83333 5.85015 7.77222 5.58348 7.65C5.31682 7.52778 5.08904 7.35 4.90015 7.11667C4.63348 7.35 4.37237 7.52778 4.11682 7.65C3.86126 7.77222 3.60571 7.83333 3.35015 7.83333H3.12515C3.05293 7.83333 3.00571 7.82778 2.98348 7.81667V13Z" fill="black"/>
</svg>
