<svg width="17" height="17" viewBox="0 0 42 28" fill="none" xmlns="http://www.w3.org/2000/svg">
<path d="M4.35012 28C3.08346 28 2.09179 27.575 1.37512 26.725C0.658456 25.875 0.400123 24.7 0.600123 23.2L3.00012 6.45C3.26679 4.68333 4.09179 3.16667 5.47512 1.9C6.85846 0.633333 8.43346 0 10.2001 0H31.8501C33.6168 0 35.1918 0.633333 36.5751 1.9C37.9585 3.16667 38.7835 4.68333 39.0501 6.45L41.4001 23.2C41.6001 24.7 41.3418 25.875 40.6251 26.725C39.9085 27.575 38.9168 28 37.6501 28C36.8835 28 36.2335 27.875 35.7001 27.625C35.1668 27.375 34.7168 27.0667 34.3501 26.7L29.1501 21.5H12.8501L7.65012 26.7C7.28346 27.0667 6.83346 27.375 6.30012 27.625C5.76679 27.875 5.11679 28 4.35012 28ZM5.25012 24.8L11.5501 18.5H30.4501L36.7501 24.8C36.9168 24.9667 37.2168 25.1167 37.6501 25.25C37.9501 25.25 38.1751 25.1 38.3251 24.8C38.4751 24.5 38.5168 24.2 38.4501 23.9L36.0501 6.95C35.8835 5.78333 35.3918 4.83333 34.5751 4.1C33.7585 3.36667 32.8501 3 31.8501 3H10.1501C9.15012 3 8.24179 3.36667 7.42512 4.1C6.60846 4.83333 6.11679 5.78333 5.95012 6.95L3.55012 23.9C3.48346 24.2 3.52512 24.5 3.67512 24.8C3.82512 25.1 4.05012 25.25 4.35012 25.25C4.58346 25.25 4.88346 25.1 5.25012 24.8ZM32.0001 16C32.5335 16 33.0001 15.8 33.4001 15.4C33.8001 15 34.0001 14.5333 34.0001 14C34.0001 13.4667 33.8001 13 33.4001 12.6C33.0001 12.2 32.5335 12 32.0001 12C31.4668 12 31.0001 12.2 30.6001 12.6C30.2001 13 30.0001 13.4667 30.0001 14C30.0001 14.5333 30.2001 15 30.6001 15.4C31.0001 15.8 31.4668 16 32.0001 16ZM27.7501 9.5C28.2835 9.5 28.7501 9.3 29.1501 8.9C29.5501 8.5 29.7501 8.03333 29.7501 7.5C29.7501 6.96667 29.5501 6.5 29.1501 6.1C28.7501 5.7 28.2835 5.5 27.7501 5.5C27.2168 5.5 26.7501 5.7 26.3501 6.1C25.9501 6.5 25.7501 6.96667 25.7501 7.5C25.7501 8.03333 25.9501 8.5 26.3501 8.9C26.7501 9.3 27.2168 9.5 27.7501 9.5ZM12.0001 15.75H14.5001V12H18.2501V9.5H14.5001V5.75H12.0001V9.5H8.25012V12H12.0001V15.75Z" fill="black"/>
</svg>
