<svg width="17" height="17" viewBox="0 0 17 17" fill="none" xmlns="http://www.w3.org/2000/svg">
<path d="M10.625 14.875C9.26736 14.875 8.01302 14.4766 6.86198 13.6797C5.71094 12.8828 4.92882 11.8056 4.51562 10.4479H2.125V9.38542H4.30312C4.2559 9.05486 4.23524 8.75972 4.24115 8.5C4.24705 8.24028 4.26771 7.94514 4.30312 7.61458H2.125V6.55208H4.51562C4.92882 5.19444 5.71094 4.11719 6.86198 3.32031C8.01302 2.52344 9.26736 2.125 10.625 2.125C11.4396 2.125 12.204 2.26372 12.9182 2.54115C13.6325 2.81858 14.2847 3.22292 14.875 3.75417L14.1135 4.49792C13.6295 4.07292 13.0865 3.74826 12.4844 3.52396C11.8823 3.29965 11.2625 3.1875 10.625 3.1875C9.51528 3.1875 8.50295 3.4974 7.58802 4.11719C6.67309 4.73698 6.02674 5.54861 5.64896 6.55208H10.625V7.61458H5.38333C5.32431 7.93333 5.29479 8.22847 5.29479 8.5C5.29479 8.77153 5.32431 9.06667 5.38333 9.38542H10.625V10.4479H5.64896C6.02674 11.4514 6.67309 12.263 7.58802 12.8828C8.50295 13.5026 9.51528 13.8125 10.625 13.8125C11.2507 13.8125 11.8646 13.7062 12.4667 13.4937C13.0688 13.2812 13.6236 12.9507 14.1313 12.5021L14.875 13.2458C14.3556 13.7417 13.724 14.1372 12.9802 14.4323C12.2365 14.7274 11.4514 14.875 10.625 14.875Z" fill="black"/>
</svg>
