<svg width="17" height="17" viewBox="0 0 17 17" fill="none" xmlns="http://www.w3.org/2000/svg">
<path d="M8.11025 15.5656C7.17761 15.5184 6.304 15.3 5.48942 14.9104C4.67484 14.5208 3.9665 14.0102 3.36442 13.3786C2.76234 12.747 2.28716 12.0121 1.9389 11.1739C1.59064 10.3357 1.4165 9.4444 1.4165 8.49996C1.4165 7.5201 1.60244 6.59927 1.97432 5.73746C2.34619 4.87565 2.85088 4.126 3.48838 3.4885C4.12588 2.851 4.87553 2.34631 5.73734 1.97444C6.59914 1.60256 7.51998 1.41663 8.49984 1.41663C10.2589 1.41663 11.7877 1.97149 13.0863 3.08121C14.3849 4.19093 15.1818 5.58399 15.4769 7.26038H14.3967C14.196 6.26871 13.7769 5.38329 13.1394 4.60413C12.5019 3.82496 11.705 3.24058 10.7488 2.851V3.16975C10.7488 3.58295 10.6071 3.94301 10.3238 4.24996C10.0405 4.5569 9.6922 4.71038 9.279 4.71038H7.73838V6.251C7.73838 6.45169 7.65869 6.61697 7.49932 6.74683C7.33994 6.8767 7.15991 6.94163 6.95921 6.94163H5.48942V8.49996H7.43734V10.7135H6.25088L2.63838 7.101C2.57935 7.33711 2.53803 7.57027 2.51442 7.80048C2.49081 8.03069 2.479 8.26385 2.479 8.49996C2.479 10.0937 3.01616 11.4691 4.09046 12.626C5.16477 13.7829 6.5047 14.4086 8.11025 14.5031V15.5656ZM15.0519 15.1052L12.679 12.7323C12.4311 12.9093 12.1625 13.0451 11.8733 13.1395C11.584 13.234 11.2859 13.2812 10.979 13.2812C10.1408 13.2812 9.42952 12.989 8.84515 12.4046C8.26077 11.8203 7.96859 11.109 7.96859 10.2708C7.96859 9.4326 8.26077 8.72131 8.84515 8.13694C9.42952 7.55256 10.1408 7.26038 10.979 7.26038C11.8172 7.26038 12.5285 7.55256 13.1129 8.13694C13.6972 8.72131 13.9894 9.4326 13.9894 10.2708C13.9894 10.5777 13.9392 10.8758 13.8389 11.1651C13.7386 11.4543 13.6057 11.7288 13.4405 11.9885L15.8134 14.3437L15.0519 15.1052ZM10.979 12.2187C11.5221 12.2187 11.9825 12.0298 12.3603 11.652C12.738 11.2743 12.9269 10.8138 12.9269 10.2708C12.9269 9.72774 12.738 9.26732 12.3603 8.88954C11.9825 8.51177 11.5221 8.32288 10.979 8.32288C10.4359 8.32288 9.97553 8.51177 9.59775 8.88954C9.21998 9.26732 9.03109 9.72774 9.03109 10.2708C9.03109 10.8138 9.21998 11.2743 9.59775 11.652C9.97553 12.0298 10.4359 12.2187 10.979 12.2187Z" fill="black"/>
</svg>
