<svg xmlns="http://www.w3.org/2000/svg" width="40" height="32" viewBox="0 0 40 32">
  <path id="credit_card_FILL0_wght400_GRAD0_opsz24_1_" data-name="credit_card_FILL0_wght400_GRAD0_opsz24 (1)" d="M120-796v24a3.852,3.852,0,0,1-1.175,2.825A3.852,3.852,0,0,1,116-768H84a3.852,3.852,0,0,1-2.825-1.175A3.852,3.852,0,0,1,80-772v-24a3.852,3.852,0,0,1,1.175-2.825A3.852,3.852,0,0,1,84-800h32a3.852,3.852,0,0,1,2.825,1.175A3.852,3.852,0,0,1,120-796Zm-36,4h32v-4H84Zm0,8v12h32v-12Zm0,12v0Z" transform="translate(-80 800)" fill="currentColor"/>
</svg>
