<svg version="1.2" xmlns="http://www.w3.org/2000/svg" viewBox="0 0 480 582" width="480" height="582">
	<title>map_pin_esercente-svg</title>
	<style>
		.s0 { fill: #0033cc } 
		.s1 { fill: #ffffff } 
		.s2 { fill: #fdec33 } 
	</style>
	<path id="Layer" class="s0" d="m409.6 71.9c-93.4-93.4-244.4-93.4-337.7 0-94.3 94.2-94.3 245.2-0.9 338.6l169.3 168.5 169.3-169.4c93.4-93.4 94.3-244.3 0-337.7z"/>
	<path id="Layer" class="s0" d="m240.3 444.5c-112.6 0-205.1-91.6-205.1-204.2 0-112.6 92.5-205.1 205.1-205.1 112.6 0 205.1 91.6 205.1 205.1 0 113.4-91.6 204.2-205.1 204.2z"/>
	<g id="Layer">
		<path id="Layer" fill-rule="evenodd" class="s0" d="m95 386v-292h292v292zm116.4-123.6c0.5-0.5 1-1.1 1.6-1.5 6.2-4.5 10.2-10.6 12.4-17.8 1.8-5.9 1.8-12.1 0.8-18.3-1.2-7.3-4.6-13.2-10.2-17.9-7.7-6.4-17.1-8.9-26.4-11.4-10.4-2.9-20.9-5.6-31.2-8.6-4.7-1.4-6.9-4.4-6.9-8.6-0.1-4.6 2.5-7.9 7-9.7 6-2.4 12.1-2.2 18.2-0.8 5 1.1 9.5 3.8 10.6 9.4 0.5 2.4 1.3 2.6 3.3 2.6 7.5 0 15 0 22.5 0 3.1 0 6.3 0 9.7 0-0.7-4.3-0.9-8.3-2.1-12.1-3-10.2-10.4-16.6-19.7-21-6.8-3.3-14.2-5-21.7-5.3-9.5-0.3-19-0.8-28.4 1.6-11.2 2.8-21.3 7.2-28.5 16.7-6.8 9.2-8.2 19.5-6.3 30.4 2 11.4 9.1 19.1 19.3 24.2 9.6 4.9 20.2 6.3 30.3 9.2 5.8 1.6 11.7 3.2 17.4 5.1 3.6 1.2 5.9 4.8 5.4 7.6-1.2 6.2-4.1 8.7-10.3 9.9-3.8 0.8-7.7 0.7-11.5 0.7-8.7-0.1-17.6-4.7-18.9-15.6h-36.4c0.4 3.4 0.7 6.5 1.3 9.6 1.7 8.5 6.1 15.6 12.9 20.7 11 8.4 24 11.3 37.5 12.1 8.4 0.4 16.9 0.1 25.2-1.7 8.1-1.7 15.6-4.4 22.4-9.1q0.3-0.2 0.7-0.4zm153.5-55.4c-0.8-6.5-1.2-13-2.4-19.4-1.9-10.1-6.3-19.3-13-27-10.6-12.2-24.6-17.8-40.2-19.1-9.1-0.8-18.3-0.5-27.4 2-19 5.1-31.8 16.8-38.4 35-4.3 11.6-5.4 23.7-4.3 36.2 0.9 10.9 3.3 21.2 8.7 30.7 3.9 6.6 8.7 12.3 15 16.9 9.5 7 20.4 10.2 31.9 11.2 7.6 0.7 15.2 0.1 22.7-1.5 18.8-4.2 32.7-14.6 40.8-32.1 4.7-10.4 6.5-21.4 6.6-32.8zm-3.3 80.8c-0.5 0-0.9 0-1.1 0.2-13.6 6.9-27.6 12.6-42.2 16.8-13.2 3.8-26.5 6.9-40.2 8.1-9.1 0.8-18.3 1.8-27.4 2.2-6.8 0.3-13.6 0-20.4-0.5-9.3-0.7-18.6-1.6-27.9-2.9-8.6-1.2-17.2-2.6-25.6-4.7-15.7-4-31.2-8.6-46.1-15-2.6-1.2-5.3-1.9-7.9-2.8-4.6 8.5-9 16.5-13.5 24.7 0.7 0.5 1.4 1.2 2.2 1.5 7.5 3 14.9 6.2 22.6 8.9 17.5 6.1 35.4 11.4 53.8 14.3 10.4 1.6 20.8 3.3 31.2 4.4 7.1 0.8 14.4 0.6 21.5 0.7 12.7 0.2 25.3 0.1 37.9-1.7 7-1 14-1.6 20.9-3 15.7-3.1 31.1-7.2 46-13.1 10-3.9 19.9-8.5 29.9-12.8-4.7-8.7-9.2-17-13.7-25.3z"/>
		<path id="Layer" fill-rule="evenodd" class="s1" d="m364.9 207c-0.1 11.5-1.8 22.5-6.6 32.9-8.1 17.5-22 27.9-40.8 32-7.5 1.7-15.1 2.3-22.7 1.6-11.5-1-22.3-4.2-31.9-11.2-6.3-4.6-11.1-10.3-14.9-16.9-5.5-9.5-7.9-19.8-8.8-30.7-1.1-12.5 0-24.6 4.3-36.3 6.6-18.1 19.4-29.8 38.4-35 9.1-2.4 18.3-2.7 27.4-1.9 15.6 1.3 29.6 6.9 40.2 19 6.8 7.8 11.1 16.9 13 27.1 1.2 6.4 1.6 12.9 2.4 19.4zm-90.1 0.3c0.6 4.9 0.9 9.9 1.8 14.8 1 5.8 3.4 11.1 7.7 15.1 5.7 5.3 12.3 7.9 20.3 6.9 8.1-1 13.9-5.2 18.3-11.6 4.4-6.4 5-13.9 5.3-21.3 0.3-5.6-0.5-11.3-1-16.9-1-11.9-10.1-21.8-21.6-23.6-11.5-1.7-22.7 4.5-26.9 14.9-2.8 6.9-3.8 14.2-3.9 21.7z"/>
		<path id="Layer" class="s1" d="m210.7 262.8c-6.8 4.8-14.4 7.4-22.4 9.1-8.3 1.8-16.8 2.1-25.2 1.7-13.5-0.8-26.5-3.7-37.5-12.1-6.8-5.1-11.2-12.2-12.9-20.7-0.6-3.1-0.9-6.2-1.3-9.6h36.4c1.3 10.9 10.2 15.5 18.8 15.6 3.9 0 7.8 0.1 11.6-0.7 6.2-1.2 9.1-3.7 10.3-9.9 0.5-2.9-1.8-6.4-5.4-7.6-5.8-1.9-11.6-3.5-17.4-5.1-10.1-2.9-20.7-4.3-30.3-9.2-10.2-5.1-17.3-12.8-19.3-24.2-1.9-10.9-0.5-21.2 6.3-30.4 7.2-9.5 17.3-13.9 28.5-16.7 9.4-2.4 18.9-1.9 28.4-1.6 7.5 0.3 14.9 2 21.7 5.3 9.3 4.4 16.7 10.7 19.7 21 1.2 3.8 1.4 7.8 2.1 12.1-3.5 0-6.6 0-9.7 0-7.5 0-15 0-22.5 0-2 0.1-2.8-0.2-3.3-2.6-1.1-5.6-5.6-8.3-10.6-9.4-6.1-1.4-12.2-1.6-18.2 0.8-4.5 1.8-7.1 5.1-7 9.7 0 4.2 2.2 7.2 6.9 8.6 10.3 3 20.8 5.7 31.2 8.6 9.3 2.5 18.7 5 26.4 11.4 5.6 4.7 9 10.6 10.2 17.9 1 6.2 1 12.4-0.8 18.3-2.2 7.2-6.2 13.3-12.4 17.8-0.6 0.4-1.1 1-1.7 1.5q-0.3 0.2-0.6 0.4z"/>
		<path id="Layer" class="s2" d="m361.6 287.8c4.5 8.4 9 16.6 13.7 25.4-10.1 4.3-19.9 8.9-29.9 12.8-14.9 5.9-30.3 10-46 13.1-6.9 1.3-14 2-20.9 3-12.6 1.8-25.2 1.9-37.9 1.7-7.2-0.1-14.4 0.1-21.5-0.7-10.4-1.1-20.8-2.8-31.2-4.4-18.4-2.9-36.3-8.2-53.8-14.4-7.7-2.6-15.1-5.8-22.6-8.8-0.8-0.4-1.5-1-2.2-1.5 4.5-8.2 8.9-16.2 13.5-24.7 2.6 0.9 5.3 1.6 7.9 2.7 14.9 6.5 30.4 11.1 46.1 15 8.4 2.1 17 3.6 25.6 4.8 9.3 1.3 18.6 2.1 27.9 2.8 6.8 0.5 13.6 0.9 20.4 0.6 9.1-0.4 18.3-1.4 27.4-2.2 13.7-1.3 27-4.3 40.2-8.1 14.6-4.3 28.6-10 42.2-16.9 0.2-0.1 0.5-0.1 1-0.2z"/>
		<path id="Layer" class="s0" d="m210.7 262.8q0.3-0.2 0.7-0.4-0.4 0.2-0.7 0.4z"/>
		<path id="Layer" class="s0" d="m274.8 207.3c0.1-7.5 1.1-14.7 3.9-21.7 4.1-10.4 15.4-16.6 26.8-14.9 11.5 1.8 20.6 11.7 21.7 23.6 0.4 5.6 1.2 11.3 1 16.9-0.3 7.4-0.9 14.9-5.3 21.3-4.5 6.4-10.2 10.6-18.3 11.6-8 1-14.6-1.6-20.3-6.9-4.3-4-6.7-9.3-7.8-15.1-0.8-4.9-1.1-9.9-1.7-14.8z"/>
	</g>
</svg>