<svg width="27" height="27" viewBox="0 0 27 27" fill="none" xmlns="http://www.w3.org/2000/svg">
<path d="M13.6513 14.3069C13.5508 14.2942 13.4492 14.2942 13.3487 14.3069C12.2792 14.2707 11.2655 13.8179 10.5219 13.044C9.77828 12.2702 9.3629 11.2359 9.3635 10.1598C9.3635 7.8643 11.2047 6.00001 13.5 6.00001C14.5839 5.99811 15.6251 6.42462 16.3991 7.18758C17.1732 7.95054 17.6181 8.98883 17.6379 10.0786C17.6578 11.1684 17.251 12.2224 16.5052 13.0133C15.7595 13.8043 14.7345 14.2689 13.6513 14.3069ZM22 22.6772C19.6824 24.8194 16.6478 26.0056 13.5 26C10.2211 26 7.24481 24.7444 5 22.6772C5.12611 21.4851 5.88279 20.3183 7.2322 19.4052C10.6877 17.097 16.3375 17.097 19.7678 19.4052C21.1172 20.3183 21.8739 21.4851 22 22.6772Z" stroke="#0033CC" stroke-width="1.5" stroke-linecap="round" stroke-linejoin="round"/>
<path d="M13.5 26C20.4037 26 26 20.4037 26 13.5C26 6.59625 20.4037 1 13.5 1C6.59625 1 1 6.59625 1 13.5C1 20.4037 6.59625 26 13.5 26Z" stroke="#0033CC" stroke-width="1.5" stroke-linecap="round" stroke-linejoin="round"/>
</svg>
