<svg width="27" height="27" viewBox="0 0 27 27" fill="none" xmlns="http://www.w3.org/2000/svg">
<path d="M23.9868 10.998H2.93421V20.9993C2.93421 24.7498 4.25 26 8.19737 26H18.7237C22.6711 26 23.9868 24.7498 23.9868 20.9993V10.998ZM26 7.24754V8.4977C26 9.87288 25.3026 10.998 23.3684 10.998H3.63158C1.61842 10.998 1 9.87288 1 8.4977V7.24754C1 5.87236 1.61842 4.74721 3.63158 4.74721H23.3684C25.3026 4.74721 26 5.87236 26 7.24754ZM13.0263 4.74721H5.76316C5.54681 4.52426 5.43 4.23021 5.43737 3.92703C5.44473 3.62385 5.57568 3.33523 5.80263 3.122L7.67105 1.34677C7.90752 1.1246 8.22666 1 8.55921 1C8.89176 1 9.2109 1.1246 9.44737 1.34677L13.0263 4.74721ZM21.2237 4.74721H13.9605L17.5395 1.34677C17.7759 1.1246 18.0951 1 18.4276 1C18.7602 1 19.0793 1.1246 19.3158 1.34677L21.1842 3.122C21.6579 3.57206 21.6711 4.28465 21.2237 4.74721Z" stroke="#0033CC" stroke-width="1.5" stroke-miterlimit="10" stroke-linecap="round" stroke-linejoin="round"/>
<path d="M9.33301 10.7227V17.6955C9.33301 18.7807 10.5491 19.4183 11.4751 18.835L12.7741 17.9939C12.9998 17.8481 13.264 17.7703 13.5342 17.7703C13.8044 17.7703 14.0687 17.8481 14.2943 17.9939L15.5243 18.8079C15.7318 18.9437 15.973 19.0216 16.2222 19.0334C16.4713 19.0452 16.719 18.9904 16.9389 18.8748C17.1588 18.7592 17.3426 18.5872 17.4707 18.3771C17.5988 18.167 17.6664 17.9268 17.6663 17.6819V10.7227H9.33301Z" stroke="#0033CC" stroke-width="1.5" stroke-miterlimit="10" stroke-linecap="round" stroke-linejoin="round"/>
</svg>
